<?xml version="1.0" standalone="no"?>
<!DOCTYPE svg PUBLIC "-//W3C//DTD SVG 20010904//EN"
 "http://www.w3.org/TR/2001/REC-SVG-20010904/DTD/svg10.dtd">
<svg version="1.0" xmlns="http://www.w3.org/2000/svg"
 width="950.000000pt" height="995.000000pt" viewBox="0 0 950.000000 995.000000"
 preserveAspectRatio="xMidYMid meet">

<g transform="translate(0.000000,995.000000) scale(0.100000,-0.100000)"
fill="#ffffff" stroke="none">
<path d="M4200 8064 c-228 -146 -562 -361 -742 -476 l-328 -210 -2 -551 -3
-551 -732 -415 -732 -416 -1 -1022 0 -1023 -27 -16 c-187 -115 -303 -202 -407
-309 -390 -399 -328 -842 164 -1170 385 -257 1004 -426 1810 -495 345 -30 957
-23 1395 16 2070 182 3844 1026 3911 1860 8 101 -13 203 -62 304 -48 98 -200
252 -319 323 -83 49 -283 142 -290 135 -2 -2 35 -27 83 -55 117 -70 183 -120
270 -205 128 -127 190 -245 199 -379 18 -249 -163 -500 -542 -753 l-70 -47 -3
979 -2 980 -228 89 c-125 50 -408 161 -629 249 l-403 158 0 1196 0 1197 -22
10 c-338 158 -1862 863 -1867 863 -3 0 -193 -120 -421 -266z m1366 -262 l859
-398 3 -2672 c2 -2536 1 -2672 -15 -2680 -10 -6 -32 -13 -50 -16 l-32 -7 -3
47 -3 47 -729 338 c-402 186 -730 337 -731 336 -1 -1 0 -49 3 -107 l4 -105
637 -294 c350 -161 640 -297 644 -301 5 -4 -21 -15 -56 -23 l-65 -17 -163 76
c-90 42 -216 100 -279 129 -63 29 -251 116 -418 194 -167 77 -305 141 -306
141 -4 0 4 -192 8 -205 2 -6 193 -98 424 -205 231 -107 419 -196 418 -198 -2
-1 -34 -8 -72 -16 l-69 -13 -354 164 c-194 90 -354 163 -356 161 -2 -2 0 -50
4 -107 l6 -103 177 -82 c98 -44 178 -84 178 -87 0 -3 -33 -11 -72 -16 l-73
-10 -106 48 c-58 27 -109 49 -113 49 -4 0 -4 -26 0 -59 3 -32 2 -61 -2 -64 -5
-3 -44 -8 -86 -12 l-78 -7 0 3236 c0 1780 2 3236 4 3236 2 0 390 -179 862
-398z m-2456 -3890 l0 -2229 -57 4 c-453 31 -913 114 -1223 221 l-55 19 -2
1729 -3 1729 663 377 c364 207 665 377 670 377 4 1 7 -1002 7 -2227z m-1455
-1931 c-8 -7 -147 63 -225 113 -163 106 -272 230 -310 354 -67 217 25 454 275
707 55 56 136 131 180 167 l80 66 3 -701 c1 -385 0 -703 -3 -706z"/>
<path d="M4867 7803 c3 -54 5 -101 6 -106 1 -4 151 -76 332 -161 871 -404
1114 -516 1119 -516 3 0 6 46 6 103 l0 102 -247 115 c-137 63 -464 214 -728
337 -264 123 -483 223 -486 223 -3 0 -4 -44 -2 -97z"/>
<path d="M4868 7478 c3 -60 9 -106 16 -110 12 -8 1401 -653 1429 -663 15 -7
17 2 17 97 l0 104 -177 82 c-98 45 -425 196 -728 337 -302 140 -553 255 -556
255 -3 0 -4 -46 -1 -102z"/>
<path d="M4868 7158 c3 -60 9 -106 16 -110 12 -8 1403 -654 1430 -664 14 -5
16 7 16 98 l0 103 -727 338 c-401 185 -731 337 -734 337 -3 0 -4 -46 -1 -102z"/>
<path d="M4868 6838 c2 -57 6 -104 7 -106 4 -5 1444 -672 1450 -672 3 0 5 46
5 103 l0 103 -197 91 c-109 50 -436 202 -728 337 -291 135 -532 246 -536 246
-3 0 -4 -46 -1 -102z"/>
<path d="M4863 6584 c4 -22 7 -69 7 -105 l0 -66 716 -332 c394 -183 723 -335
730 -338 11 -4 14 14 14 99 l0 104 -721 335 c-396 183 -728 336 -736 338 -13
2 -15 -4 -10 -35z"/>
<path d="M4864 6263 c3 -21 6 -68 6 -104 l0 -66 718 -333 c394 -183 723 -335
730 -337 9 -4 12 20 12 99 l0 105 -477 221 c-263 121 -590 273 -727 336 -137
64 -253 116 -259 116 -6 0 -7 -15 -3 -37z"/>
<path d="M4863 5944 c4 -21 7 -69 7 -105 l0 -66 78 -36 c42 -19 174 -80 292
-135 425 -198 1065 -494 1078 -499 9 -4 12 20 12 99 l0 105 -717 333 c-395
183 -727 335 -737 338 -17 5 -18 1 -13 -34z"/>
<path d="M4868 5558 c2 -57 5 -104 6 -105 2 -2 1422 -661 1444 -670 9 -4 12
20 12 99 l0 105 -717 333 c-395 183 -725 335 -734 337 -14 4 -15 -7 -11 -99z"/>
<path d="M4863 5310 c4 -18 7 -65 7 -104 l0 -72 278 -129 c152 -70 479 -222
726 -337 247 -114 450 -208 452 -208 2 0 4 47 4 104 l0 103 -717 333 c-395
183 -727 335 -737 338 -17 5 -18 1 -13 -28z"/>
<path d="M4868 4918 c2 -57 5 -104 6 -105 1 -1 1422 -661 1444 -670 9 -4 12
20 12 99 l0 105 -717 333 c-395 183 -725 335 -734 337 -14 4 -15 -7 -11 -99z"/>
<path d="M4868 4598 c2 -57 5 -104 6 -105 1 -1 1422 -661 1444 -670 9 -4 12
20 12 99 l0 105 -162 76 c-711 330 -1290 597 -1297 597 -4 0 -6 -46 -3 -102z"/>
<path d="M4864 4358 c3 -13 6 -59 6 -103 l0 -80 323 -150 c177 -82 500 -232
717 -333 217 -101 401 -186 408 -189 9 -4 12 20 12 99 l0 105 -97 46 c-495
232 -1355 627 -1364 627 -7 0 -9 -9 -5 -22z"/>
<path d="M4864 4038 c3 -13 6 -60 6 -104 l0 -82 48 -20 c26 -11 349 -161 717
-332 369 -171 676 -314 683 -317 10 -4 12 17 10 101 l-3 107 -180 83 c-99 46
-424 196 -722 335 -298 138 -548 251 -554 251 -7 0 -9 -9 -5 -22z"/>
<path d="M4868 3641 c2 -58 5 -107 6 -107 2 -2 1387 -645 1424 -660 l33 -15
-3 106 -3 105 -690 321 c-379 176 -708 328 -731 338 l-41 18 5 -106z"/>
<path d="M4868 3321 c2 -58 5 -107 6 -107 2 -2 1392 -647 1424 -660 l32 -14 0
105 0 106 -42 18 c-24 10 -331 152 -683 316 -352 163 -663 307 -691 320 l-51
22 5 -106z"/>
<path d="M4868 3002 c2 -59 5 -107 6 -108 2 -2 1352 -627 1404 -650 l53 -24
-3 106 -3 105 -700 324 c-385 179 -714 331 -731 339 l-31 14 5 -106z"/>
</g>
</svg>
