<?xml version="1.0" standalone="no"?>
<!DOCTYPE svg PUBLIC "-//W3C//DTD SVG 20010904//EN"
 "http://www.w3.org/TR/2001/REC-SVG-20010904/DTD/svg10.dtd">
<svg version="1.0" xmlns="http://www.w3.org/2000/svg"
 width="740.000000pt" height="740.000000pt" viewBox="0 0 740.000000 740.000000"
 preserveAspectRatio="xMidYMid meet">

<g transform="translate(0.000000,740.000000) scale(0.100000,-0.100000)"
fill="#ffffff" stroke="none">
<path d="M4708 5977 c-136 -89 -318 -207 -403 -262 -86 -55 -163 -105 -171
-110 -12 -8 -4 -22 44 -74 l58 -65 210 136 c305 198 322 208 334 208 7 0 10
-191 10 -610 0 -357 -4 -610 -9 -610 -5 0 -43 39 -85 87 l-76 88 0 362 c0 200
-3 363 -6 363 -5 0 -118 -66 -154 -89 -12 -8 -16 -50 -20 -229 l-5 -220 -380
411 c-209 226 -400 433 -425 460 l-44 49 -26 -30 c-170 -200 -507 -586 -766
-877 -558 -625 -603 -676 -759 -845 -84 -91 -167 -182 -185 -202 l-32 -38 164
0 163 0 335 347 c184 191 425 438 535 550 l200 203 465 -477 c256 -263 499
-513 540 -556 l75 -77 583 2 583 3 -246 255 -245 255 0 878 c0 482 -3 877 -7
877 -5 0 -119 -73 -255 -163z"/>
<path d="M3435 6063 c-556 -68 -1068 -309 -1466 -690 -406 -390 -654 -874
-735 -1438 -21 -146 -24 -482 -5 -630 12 -96 49 -296 56 -303 2 -3 183 84 193
93 1 1 -6 53 -17 114 -87 480 -16 952 209 1401 155 310 436 624 750 839 217
148 480 268 734 332 44 11 91 27 102 34 12 8 61 60 110 117 111 129 119 138
108 137 -5 -1 -22 -4 -39 -6z"/>
<path d="M3710 6054 c8 -10 61 -69 117 -130 102 -111 103 -111 155 -116 52 -5
54 -5 185 81 73 47 133 89 133 92 0 17 -327 72 -505 85 -97 7 -100 7 -85 -12z"/>
<path d="M5190 5416 l0 -146 103 -102 c339 -337 552 -745 638 -1218 31 -167
37 -471 14 -650 -41 -329 -169 -680 -349 -955 -36 -55 -62 -103 -58 -107 4 -4
51 -18 106 -32 116 -31 94 -44 196 124 215 359 340 814 340 1239 0 588 -206
1157 -578 1602 -89 105 -293 305 -366 357 l-46 33 0 -145z"/>
<path d="M3197 4788 c-8 -13 -41 -53 -73 -89 -152 -171 -414 -471 -549 -628
-267 -309 -243 -274 -250 -355 -3 -39 -5 -158 -3 -263 l3 -193 75 0 c192 -1
484 -48 740 -120 251 -71 623 -213 1005 -385 83 -37 156 -69 162 -72 10 -4 13
89 15 433 l3 439 250 0 250 0 5 -539 5 -539 135 -54 c74 -29 143 -56 153 -59
16 -5 17 20 17 439 0 244 -3 546 -7 670 l-6 227 -465 0 -466 0 -101 108 c-252
266 -651 720 -818 930 -32 39 -59 72 -61 72 -2 0 -10 -10 -19 -22z m-67 -788
l0 -140 -125 0 -125 0 0 140 0 140 125 0 125 0 0 -140z m358 -2 l3 -138 -126
0 -125 0 0 133 c0 74 3 137 7 141 4 3 59 5 122 4 l116 -3 3 -137z m-358 -368
l0 -140 -125 0 -125 0 0 140 0 140 125 0 125 0 0 -140z m355 -5 l0 -140 -120
0 -120 0 -3 129 c-1 72 0 136 2 143 4 11 32 13 123 11 l118 -3 0 -140z"/>
<path d="M2280 3173 c-525 -37 -959 -220 -1435 -602 -120 -96 -409 -370 -446
-423 -18 -24 -8 -20 79 31 371 221 699 363 998 435 385 91 825 86 1284 -15
384 -85 587 -145 1226 -359 715 -239 899 -293 1255 -365 292 -58 465 -77 714
-78 384 -1 681 56 925 178 90 45 169 92 135 80 -11 -3 -74 -16 -140 -28 -106
-19 -156 -22 -430 -22 -336 0 -393 6 -680 66 -384 80 -665 181 -1497 538 -523
224 -745 313 -963 388 -397 135 -749 196 -1025 176z"/>
<path d="M1720 2444 c-220 -20 -522 -84 -720 -152 -111 -38 -331 -124 -328
-128 2 -1 48 11 102 27 274 81 635 120 926 99 340 -24 682 -109 1109 -275 75
-29 325 -133 556 -232 762 -327 1145 -449 1595 -509 168 -22 458 -23 611 -1
367 54 709 183 1002 380 64 44 119 82 121 86 2 3 -42 -17 -99 -45 -249 -123
-651 -197 -980 -180 -466 25 -923 143 -1880 489 -691 249 -1120 371 -1485 422
-111 16 -437 27 -530 19z"/>
</g>
</svg>
